<?xml version="1.0" encoding="UTF-8" standalone="no"?>
<svg xmlns:rdf="http://www.w3.org/1999/02/22-rdf-syntax-ns#" xmlns="http://www.w3.org/2000/svg" enable-background="new 0 0 960 560" xml:space="preserve" viewBox="0 0 122.7 47.599998" height="47.6" width="122.7" version="1.1" y="0px" x="0px" xmlns:cc="http://creativecommons.org/ns#" xmlns:dc="http://purl.org/dc/elements/1.1/"><metadata><rdf:RDF><cc:Work rdf:about=""><dc:format>image/svg+xml</dc:format><dc:type rdf:resource="http://purl.org/dc/dcmitype/StillImage"/></cc:Work></rdf:RDF></metadata><polygon points="426.8 256.2 466.9 256.2 466.9 291.5 446.9 300 426.8 291.5" fill="#3e4555" transform="translate(-425.1,-254.6)"/><polygon points="446.5 300 453.1 297.4 452.1 284.2 445.4 266 438.3 257 427.6 257.7 428 275.7 432.9 294.1" fill="#d3d6d8" transform="translate(-425.1,-254.6)"/><path fill="#fff" d="m38.8 1.6h-7.8c-5.1 2.8-10.5 11.9-10.5 11.9l3.3 6.6c0.2-0.4 0.3 1 0.5 0.6l2.9 10.3c5-14.2 13.9-16.6 13.9-16.6l0.3-10.7c-0.6 0.4-1.8-2.6-2.6-2.1z"/><path fill="#3e4555" d="m0 0.3v38.1l21.7 9.2 21.7-9.2v-38.1h-43.4zm30 3.3h7.3c-6.6 4.7-10.9 10.6-13 14.1-0.8-1.7-1.6-3.3-2.4-4.8 0.6-1.3 2.7-5.5 8.1-9.3zm-4.1 0c-3 2.6-4.7 5.1-5.5 6.8-1.9-2.9-3.8-5.1-5.3-6.8h10.8zm-22.5 22.8c1.2 2.5 2.3 6 2.5 10.8l-2.5-1.1v-9.7zm5 11.9c-0.2-8.8-3.2-14.1-5-16.5v-7.4c3.6 3.9 9.3 12.2 9.6 25.9l-4.6-2zm11.7 4.9-4.6-1.9c-0.1-17.7-8.6-27.2-12.1-30.4v-6.9c5.2 4.7 17.5 18.2 16.7 39.2zm2.7 0.3c0.6-20.1-10.4-33.9-16.3-39.8h5c2.6 2.6 7.8 8.4 11.4 17.1 2.4 5.8 4 12.8 3.8 21.1l-3.9 1.6zm17.3-7.3-11.5 4.9c0.2-3.3 0-6.4-0.3-9.4 0-0.1 4.1-10 11.9-16v20.5zm0-23.6c-6.4 4.4-10.6 11.1-12.6 14.9-0.5-2.5-1.2-4.8-2-6.9 1.1-2.1 5.6-10 14.6-15.9v7.9z"/><g fill="#3e4555" transform="translate(-425.1,-254.6)"><path d="m484.8 260.6c-0.7-0.7-1-1.5-1-2.5s0.3-1.8 1-2.5 1.5-1 2.5-1 1.8 0.3 2.5 1 1 1.5 1 2.5-0.3 1.8-1 2.5-1.5 1-2.5 1c-0.9 0.1-1.8-0.3-2.5-1zm5.3 31.9h-5.6v-26.6h5.6v26.6z"/><path d="m497.7 262.8v-5.2h20.4v4.6l-8.4 9.4c3.2 0.1 5.7 1.1 7.5 3s2.7 4.2 2.7 6.9c0 3.6-1.2 6.4-3.6 8.4s-5.5 3-9.3 3-7.5-1.2-11.1-3.6l2.5-4.7c2.9 2 5.9 3 9 3 2 0 3.7-0.5 5-1.4s2-2.3 2-4.1-0.7-3.2-2.2-4.3-3.5-1.6-6.1-1.6c-1.3 0-2.5 0.2-3.7 0.5v-4.5l8.1-9.4h-12.8z"/><path d="m539.4 271.2c1-1.4 1.5-2.7 1.5-4.1s-0.5-2.6-1.6-3.6-2.4-1.5-4-1.5c-2.9 0-5.2 1.5-7.1 4.4l-4.7-2.7c1.5-2.3 3.2-4 5.1-5.2 1.8-1.2 4.2-1.7 7.1-1.7s5.5 0.9 7.7 2.8c2.2 1.8 3.3 4.4 3.3 7.6 0 1.8-0.5 3.5-1.4 5.1s-2.6 3.7-5.1 6.3l-8.2 8.3h15.8v5.6h-23.9v-5l10.6-10.6c2.2-2.5 3.9-4.3 4.9-5.7z"/></g></svg>
