<?xml version="1.0" encoding="UTF-8" standalone="no"?>
<svg xmlns:rdf="http://www.w3.org/1999/02/22-rdf-syntax-ns#" xmlns="http://www.w3.org/2000/svg" enable-background="new 0 0 960 560" xml:space="preserve" viewBox="0 0 289.20001 48.700001" height="48.7" width="289.2" version="1.1" y="0px" x="0px" xmlns:cc="http://creativecommons.org/ns#" xmlns:dc="http://purl.org/dc/elements/1.1/"><metadata><rdf:RDF><cc:Work rdf:about=""><dc:format>image/svg+xml</dc:format><dc:type rdf:resource="http://purl.org/dc/dcmitype/StillImage"/></cc:Work></rdf:RDF></metadata><polygon points="336.9 286.3 377 286.3 377 321.7 357 330.1 336.9 321.7" fill="#3e4555" transform="translate(-335.2,-285)"/><polygon points="356.6 330.1 363.2 327.5 362.2 314.3 355.5 296.1 348.4 287.1 337.7 287.8 338.1 305.8 343 324.2" fill="#d3d6d8" transform="translate(-335.2,-285)"/><path fill="#fff" d="m38.8 1.3h-7.8c-5.1 2.8-10.5 11.9-10.5 11.9l3.3 6.6c0.2-0.4 0.3 1 0.5 0.6l2.9 10.3c5-14.2 13.9-16.6 13.9-16.6l0.3-10.7c-0.6 0.4-1.8-2.5-2.6-2.1z"/><path fill="#3e4555" d="m0 0v38.1l21.7 9.2 21.7-9.2v-38.1h-43.4zm30 3.3h7.3c-6.6 4.7-10.9 10.6-13 14.1-0.8-1.7-1.6-3.3-2.4-4.8 0.6-1.2 2.7-5.4 8.1-9.3zm-4.1 0c-3 2.6-4.7 5.1-5.5 6.8-1.9-2.9-3.8-5.1-5.3-6.8h10.8zm-22.5 22.9c1.2 2.5 2.3 6 2.5 10.8l-2.5-1.1v-9.7zm5 11.8c-0.2-8.8-3.2-14.1-5-16.5v-7.4c3.6 3.9 9.3 12.2 9.6 25.9l-4.6-2zm11.7 4.9-4.6-1.9c-0.1-17.7-8.6-27.2-12.1-30.4v-6.9c5.2 4.7 17.5 18.2 16.7 39.2zm2.7 0.3c0.6-20.1-10.4-33.9-16.3-39.8h5c2.6 2.6 7.8 8.4 11.4 17.1 2.4 5.8 4 12.8 3.8 21.1l-3.9 1.6zm17.3-7.3-11.5 4.9c0.2-3.3 0-6.4-0.3-9.4 0-0.1 4.1-10 11.9-16v20.5zm0-23.6c-6.4 4.4-10.6 11.1-12.6 14.9-0.5-2.5-1.2-4.8-2-6.9 1.1-2.1 5.6-10 14.6-15.9v7.9z"/><g fill="#3e4555" transform="translate(-335.2,-285)"><path d="m394.5 291.1c-0.7-0.7-1-1.5-1-2.5s0.3-1.8 1-2.5 1.5-1 2.5-1 1.8 0.3 2.5 1 1 1.5 1 2.5-0.3 1.8-1 2.5-1.5 1-2.5 1-1.8-0.3-2.5-1zm5.3 31.8h-5.6v-26.6h5.6v26.6z"/><path d="m411.8 308.5v14.4h-5.6v-26.6h5.6v4.8c0.9-1.6 2.1-2.9 3.7-3.8s3.3-1.4 5.1-1.4c3 0 5.4 0.9 7.3 2.7 1.8 1.8 2.8 4.5 2.8 7.9v16.3h-5.6v-14.6c0-4.9-2-7.3-6.1-7.3-1.9 0-3.6 0.6-5 1.9-1.4 1.4-2.2 3.3-2.2 5.7z"/><path d="m442.5 300.8v13.5c0 1.3 0.3 2.3 1 3s1.6 1.1 2.8 1.1 2.3-0.6 3.4-1.7l2.3 3.9c-2 1.8-4.1 2.6-6.5 2.6s-4.4-0.8-6.1-2.5c-1.7-1.6-2.5-3.9-2.5-6.7v-13.3h-3.3v-4.5h3.3v-8.2h5.6v8.3h7v4.5h-7z"/><path d="m479.6 312.1h-20.8c0.1 1.9 1 3.5 2.6 4.7s3.5 1.8 5.6 1.8c3.3 0 5.9-1 7.6-3.1l3.2 3.5c-2.9 3-6.6 4.4-11.2 4.4-3.7 0-6.9-1.2-9.5-3.7s-3.9-5.8-3.9-10 1.3-7.5 4-10 5.8-3.7 9.4-3.7 6.7 1.1 9.2 3.3 3.8 5.2 3.8 9v3.8zm-20.8-4.4h15.2c0-2.2-0.7-3.9-2.1-5.1s-3.1-1.8-5.2-1.8c-2 0-3.9 0.6-5.5 1.9-1.6 1.2-2.4 2.9-2.4 5z"/><path d="m509 296.4v23.2c0 4.7-1.3 8.2-3.8 10.6s-5.8 3.5-9.8 3.5-7.6-1.2-10.8-3.7l2.6-4.2c2.6 2 5.2 2.9 7.9 2.9s4.7-0.7 6.3-2c1.5-1.4 2.3-3.5 2.3-6.5v-3.4c-0.8 1.6-2 2.8-3.6 3.7s-3.3 1.4-5.2 1.4c-3.5 0-6.4-1.2-8.7-3.7s-3.4-5.5-3.4-9.2 1.1-6.7 3.4-9.2 5.2-3.7 8.7-3.7 6.4 1.4 8.6 4.3v-3.9h5.5zm-20.7 12.2c0 2.2 0.7 4.1 2 5.6 1.3 1.6 3.2 2.4 5.4 2.4 2.3 0 4.1-0.8 5.5-2.3s2.1-3.4 2.1-5.7-0.7-4.2-2.1-5.8-3.3-2.4-5.5-2.4c-2.3 0-4.1 0.8-5.4 2.4-1.3 1.7-2 3.6-2 5.8z"/><path d="m539.1 312.1h-20.8c0.1 1.9 1 3.5 2.6 4.7s3.5 1.8 5.6 1.8c3.3 0 5.9-1 7.6-3.1l3.2 3.5c-2.9 3-6.6 4.4-11.2 4.4-3.7 0-6.9-1.2-9.5-3.7s-3.9-5.8-3.9-10 1.3-7.5 4-10 5.8-3.7 9.4-3.7 6.7 1.1 9.2 3.3 3.8 5.2 3.8 9v3.8zm-20.8-4.4h15.2c0-2.2-0.7-3.9-2.1-5.1s-3.1-1.8-5.2-1.8c-2 0-3.9 0.6-5.5 1.9-1.6 1.2-2.4 2.9-2.4 5z"/><path d="m557.3 301.6c-2.8 0-4.8 0.9-6.2 2.7s-2.1 4.2-2.1 7.2v11.4h-5.6v-26.6h5.6v5.3c0.9-1.7 2.1-3 3.7-4.1s3.2-1.6 4.9-1.6l0.1 5.6c-0.2 0.1-0.3 0.1-0.4 0.1z"/><path d="m574.3 293.3v-5.3h20.4v4.6l-8.4 9.4c3.2 0.1 5.7 1.1 7.5 3s2.7 4.2 2.7 6.9c0 3.6-1.2 6.4-3.6 8.4s-5.5 3-9.3 3-7.5-1.2-11.1-3.6l2.5-4.7c2.9 2 5.9 3 9 3 2 0 3.7-0.5 5-1.4s2-2.3 2-4.1-0.7-3.2-2.2-4.3-3.5-1.6-6.1-1.6c-1.3 0-2.5 0.2-3.7 0.5v-4.5l8.1-9.4h-12.8z"/><path d="m616 301.6c1-1.4 1.5-2.7 1.5-4.1s-0.5-2.6-1.6-3.6-2.4-1.5-4-1.5c-2.9 0-5.2 1.5-7.1 4.4l-4.7-2.7c1.5-2.3 3.2-4 5.1-5.2 1.8-1.2 4.2-1.7 7.1-1.7s5.5 0.9 7.7 2.8c2.2 1.8 3.3 4.4 3.3 7.6 0 1.8-0.5 3.5-1.4 5.1s-2.6 3.7-5.1 6.3l-8.2 8.3h15.8v5.6h-23.9v-5l10.6-10.6c2.2-2.4 3.9-4.3 4.9-5.7z"/></g></svg>
