<?xml version="1.0" encoding="UTF-8" standalone="no"?>
<svg xmlns:rdf="http://www.w3.org/1999/02/22-rdf-syntax-ns#" xmlns="http://www.w3.org/2000/svg" enable-background="new 0 0 960 560" xml:space="preserve" viewBox="0 0 123 47.400002" height="47.4" width="123" version="1.1" y="0px" x="0px" xmlns:cc="http://creativecommons.org/ns#" xmlns:dc="http://purl.org/dc/elements/1.1/"><metadata><rdf:RDF><cc:Work rdf:about=""><dc:format>image/svg+xml</dc:format><dc:type rdf:resource="http://purl.org/dc/dcmitype/StillImage"/></cc:Work></rdf:RDF></metadata><g transform="translate(-418.6,-279.9)"><path d="m478.6 285.9c-0.7-0.7-1-1.5-1-2.5s0.3-1.8 1-2.5 1.5-1 2.5-1 1.8 0.3 2.5 1 1 1.5 1 2.5-0.3 1.8-1 2.5-1.5 1-2.5 1-1.8-0.3-2.5-1zm5.2 31.8h-5.6v-26.6h5.6v26.6z"/><path d="m491.4 288.1v-5.2h20.4v4.6l-8.4 9.4c3.2 0.1 5.7 1.1 7.5 3s2.7 4.2 2.7 6.9c0 3.6-1.2 6.4-3.6 8.4s-5.5 3-9.3 3-7.5-1.2-11.1-3.6l2.5-4.7c2.9 2 5.9 3 9 3 2 0 3.7-0.5 5-1.4s2-2.3 2-4.1-0.7-3.2-2.2-4.3-3.5-1.6-6.1-1.6c-1.3 0-2.5 0.2-3.7 0.5v-4.5l8.1-9.4h-12.8z"/><path d="m533.2 296.5c1-1.4 1.5-2.7 1.5-4.1s-0.5-2.6-1.6-3.6-2.4-1.5-4-1.5c-2.9 0-5.2 1.5-7.1 4.4l-4.7-2.7c1.5-2.3 3.2-4 5.1-5.2 1.8-1.2 4.2-1.7 7.1-1.7s5.5 0.9 7.7 2.8c2.2 1.8 3.3 4.4 3.3 7.6 0 1.8-0.5 3.5-1.4 5.1s-2.6 3.7-5.1 6.3l-8.2 8.3h15.8v5.6h-23.9v-5l10.6-10.6c2.2-2.5 3.9-4.4 4.9-5.7z"/></g><path d="m0 0.1v38.1l21.7 9.2 21.7-9.2v-38.1h-43.4zm40.1 12.3c-6.4 4.4-10.6 11.1-12.6 14.9-0.5-2.5-1.2-4.8-2-6.9 1.1-2.1 5.6-10 14.6-15.9v7.9zm-2.8-8.9c-6.6 4.7-10.9 10.6-13 14.1-0.8-1.7-1.6-3.3-2.4-4.8 0.6-1.3 2.7-5.5 8.1-9.3h7.3zm-29 34.6c-0.2-8.8-3.2-14.1-5-16.5v-7.4c3.6 3.9 9.3 12.2 9.6 25.9l-4.6-2zm11.7 4.9-4.6-1.9c-0.1-17.7-8.6-27.2-12.1-30.4v-6.9c5.2 4.7 17.6 18.3 16.7 39.2zm2.7 0.3c0.6-20.1-10.4-33.9-16.3-39.8h5c2.6 2.6 7.8 8.4 11.4 17.1 2.4 5.8 4 12.8 3.8 21.1l-3.9 1.6z"/></svg>
