<?xml version="1.0" encoding="UTF-8" standalone="no"?>
<svg xmlns:rdf="http://www.w3.org/1999/02/22-rdf-syntax-ns#" xmlns="http://www.w3.org/2000/svg" enable-background="new 0 0 960 560" xml:space="preserve" viewBox="0 0 122.7 47.5" version="1.1" y="0px" x="0px" xmlns:cc="http://creativecommons.org/ns#" xmlns:dc="http://purl.org/dc/elements/1.1/"><metadata><rdf:RDF><cc:Work rdf:about=""><dc:format>image/svg+xml</dc:format><dc:type rdf:resource="http://purl.org/dc/dcmitype/StillImage"/></cc:Work></rdf:RDF></metadata><polygon points="407.9 304.2 448 304.2 448 339.5 427.9 348 407.9 339.5" fill="#354c9f" transform="translate(-406.2,-302.6)"/><polygon points="427.5 348 434.2 345.3 433.1 332.1 426.4 313.9 419.4 305 408.6 305.7 409 323.6 413.9 342.1" fill="#a7d2ee" transform="translate(-406.2,-302.6)"/><path fill="#fff" d="m38.8 1.6h-7.8c-5.1 2.8-10.5 11.9-10.5 11.9l3.3 6.6c0.2-0.4 0.3 1 0.5 0.6l2.9 10.3c5-14.2 13.9-16.6 13.9-16.6l0.3-10.7c-0.7 0.3-1.8-2.6-2.6-2.1z"/><path fill="#354c9f" d="m8.4 38.9h-2.4c0-11.9-5.5-16.9-5.6-17l1.6-1.8c0.3 0.3 6.4 5.9 6.4 18.8z"/><path fill="#354d9f" d="m0 0.2v38.1l21.7 9.2 21.7-9.2v-38.1h-43.4zm26.7 41.6-4 1.7c0.6-20.1-10.4-33.9-16.3-39.8h5c2.6 2.6 7.8 8.4 11.4 17.1 2.5 5.7 4.1 12.7 3.9 21zm-23.4-37.8c5.2 4.7 17.5 18.2 16.7 39.2l-4.6-1.9c-0.1-17.7-8.6-27.2-12.1-30.4v-6.9zm26.7-0.4h7.3c-6.6 4.7-10.9 10.6-13 14.1-0.8-1.7-1.6-3.3-2.4-4.8 0.5-1.3 2.7-5.5 8.1-9.3zm-9.7 6.8c-1.9-2.9-3.8-5.1-5.3-6.8h10.8c-3 2.6-4.7 5.1-5.5 6.8zm5.2 10.1c1.1-2.1 5.6-10 14.6-15.9v8c-6.4 4.4-10.6 11.1-12.6 14.9-0.5-2.5-1.2-4.8-2-7zm-22.2-6.2c3.6 3.9 9.3 12.2 9.6 25.9l-9.6-4.1v-21.8zm25.2 26.7c0.2-3.3 0-6.4-0.3-9.4 0-0.1 4.1-10 11.9-16v20.5l-11.6 4.9z"/><g transform="translate(-406.2,-302.6)"><g fill="#3e4555"><path d="m465.9 308.6c-0.7-0.7-1-1.5-1-2.5s0.3-1.8 1-2.5 1.5-1 2.5-1 1.8 0.3 2.5 1 1 1.5 1 2.5-0.3 1.8-1 2.5-1.5 1-2.5 1-1.8-0.3-2.5-1zm5.2 31.8h-5.6v-26.6h5.6v26.6z"/><path d="m478.7 310.8v-5.2h20.4v4.6l-8.4 9.4c3.2 0.1 5.7 1.1 7.5 3s2.7 4.2 2.7 6.9c0 3.6-1.2 6.4-3.6 8.4s-5.5 3-9.3 3-7.5-1.2-11.1-3.6l2.5-4.7c2.9 2 5.9 3 9 3 2 0 3.7-0.5 5-1.4s2-2.3 2-4.1-0.7-3.2-2.2-4.3-3.5-1.6-6.1-1.6c-1.3 0-2.5 0.2-3.7 0.5v-4.5l8.1-9.4h-12.8z"/><path d="m520.5 319.2c1-1.4 1.5-2.7 1.5-4.1s-0.5-2.6-1.6-3.6-2.4-1.5-4-1.5c-2.9 0-5.2 1.5-7.1 4.4l-4.7-2.7c1.5-2.3 3.2-4 5.1-5.2 1.8-1.2 4.2-1.7 7.1-1.7s5.5 0.9 7.7 2.8c2.2 1.8 3.3 4.4 3.3 7.6 0 1.8-0.5 3.5-1.4 5.1s-2.6 3.7-5.1 6.3l-8.2 8.3h15.8v5.6h-23.9v-5l10.6-10.6c2.2-2.5 3.9-4.4 4.9-5.7z"/></g></g></svg>
